# xmcd
# 
# Track frame offsets:
#     150
#     7340
#     20090
#     32615
#     45825
#     51130
#     63165
#     66247
#     79625
#     83457
#     95730
#     100565
#     112117
#     124492
#     129310
#     141992
#     146920
#     160255
#     164734
#     178520
#     181560
#     193107
#     197112
#     207060
#     210420
#     225762
#     231295
# 
# Disc length: 3328
# 
# Revision: 0
# Processed by: cddbd v1.5.2PL0 Copyright (c) Steve Scherf et al.
# Submitted via: BonkEnc v1.0.15
# 
DISCID=720cfe1b
DTITLE=Various Artist - Swinging the Boogie
DYEAR=0
DGENRE=Blues
TTITLE0=藤井康一 - Openning
TTITLE1=Roy Brown - Boogie At Midnight
TTITLE2=Wynonie Harris - Wynonie's Blues
TTITLE3=Joe Turner - Roll 'Em Pete
TTITLE4=藤井康一 - 解説 01
TTITLE5=Jimmy Witherspoon - Mr. Hootie
TTITLE6=藤井康一 - 解説 02
TTITLE7=Calvin Boze - Safronia B.
TTITLE8=藤井康一 - 解説 03
TTITLE9=Cab Calloway - Chinese Rhythm
TTITLE10=藤井康一 - 解説 04
TTITLE11=Leo Watson - Ja-da
TTITLE12=Slim Gaillard - Tuttie Fruttie
TTITLE13=藤井康一 - 解説 05
TTITLE14=Billy Eckstine - I Love The Rhythm In A Riff
TTITLE15=藤井康一 - 解説 06
TTITLE16=Jimmy Forrest - Night Train
TTITLE17=藤井康一 - 解説 07
TTITLE18=Goree Carter - Come On Let's Boogie
TTITLE19=藤井康一 - 解説 08
TTITLE20=Clarence Garlow - Crawfishin'
TTITLE21=藤井康一 - 解説 09
TTITLE22=Lucky Enois - Zig Zag Ziggin'
TTITLE23=藤井康一 - 解説 10
TTITLE24=Melvin Daniels with King Curtis - I'll Be There
TTITLE25=藤井康一 - 解説 11
TTITLE26=藤井康一×関ヒトシ - 反省
EXTD=Blues and Soul Records No.27
EXTT0=
EXTT1=
EXTT2=
EXTT3=
EXTT4=
EXTT5=
EXTT6=
EXTT7=
EXTT8=
EXTT9=
EXTT10=
EXTT11=
EXTT12=
EXTT13=
EXTT14=
EXTT15=
EXTT16=
EXTT17=
EXTT18=
EXTT19=
EXTT20=
EXTT21=
EXTT22=
EXTT23=
EXTT24=
EXTT25=
EXTT26=
PLAYORDER=
